<svg xmlns="http://www.w3.org/2000/svg" version="1.1" baseProfile="tiny" x="0" y="0" viewBox="0 0 240 50" xml:space="preserve"><path fill="#F1F1F1" d="M166.8 30c-0.1 0.3-0.3 0.6-0.6 0.8 -0.3 0.2-0.6 0.3-0.8 0.4 -0.6 0.2-1.2 0.4-1.8 0.6 -0.7 0.2-1.3 0.5-1.8 0.6 -0.7 0.2-1.3 0.4-1.9 0.6 -0.5 0.2-0.9 0.4-1.3 0.7 -0.4 0.3-0.7 0.7-0.9 1.1 -0.3 0.5-0.4 1-0.4 1.7 0 1.4 0.3 2.4 1 3 0.7 0.7 1.9 1 3.7 1 1.9 0 3.1-0.4 3.8-1.1 0.7-0.7 1-1.7 1-3L166.8 30 166.8 30zM162.1 15.7c3.2 0 5.6 0.6 7.2 1.9 1.5 1.2 2.3 2.8 2.3 4.7v16c0 0.6-0.1 1.4-0.4 2.1 -0.2 0.8-0.7 1.5-1.4 2.1 -0.7 0.7-1.7 1.2-2.9 1.6 -1.2 0.4-2.8 0.6-4.8 0.6 -2 0-3.5-0.2-4.8-0.6 -1.2-0.4-2.2-1-2.9-1.6 -0.6-0.6-1.1-1.3-1.4-2.1 -0.2-0.8-0.4-1.5-0.4-2.1v-2.6c0-1.4 0.4-2.6 1.1-3.7 0.7-1.1 1.8-1.9 3.1-2.4 0.7-0.2 1.4-0.5 2.3-0.7 0.9-0.3 1.7-0.6 2.5-0.8 0.8-0.3 1.5-0.5 2.1-0.7 0.4-0.1 0.7-0.3 1.1-0.4l0.6-0.3c0.2-0.1 0.5-0.3 0.7-0.6 0.2-0.3 0.4-0.5 0.6-0.9 0.2-0.4 0.3-0.7 0.3-1.1v-1c0-0.4-0.1-0.8-0.2-1.1 -0.1-0.4-0.4-0.7-0.8-1.1 -0.4-0.3-0.9-0.6-1.5-0.8 -0.6-0.2-1.4-0.3-2.3-0.3 -1.9 0-3.1 0.4-3.7 1.1 -0.6 0.6-0.9 1.5-1 2.4 0 0.2-0.2 0.3-0.4 0.3l-4 0.1c-0.2 0-0.4-0.2-0.4-0.4v-0.9c0-0.9 0.2-1.8 0.5-2.6 0.4-0.8 0.9-1.5 1.7-2.1 0.8-0.6 1.8-1.1 2.9-1.4C159 15.8 160.4 15.7 162.1 15.7L162.1 15.7zM235.3 30c-0.1 0.3-0.3 0.6-0.6 0.8 -0.3 0.2-0.6 0.3-0.8 0.4 -0.6 0.2-1.2 0.4-1.8 0.6 -0.7 0.2-1.3 0.5-1.8 0.6 -0.7 0.2-1.3 0.4-1.9 0.6 -0.5 0.2-0.9 0.4-1.3 0.7 -0.4 0.3-0.7 0.7-0.9 1.1 -0.3 0.5-0.4 1-0.4 1.7 0 1.4 0.3 2.4 1 3 0.7 0.7 1.9 1 3.7 1 1.9 0 3.1-0.4 3.8-1.1 0.7-0.7 1-1.7 1-3L235.3 30 235.3 30zM230.6 15.7c3.2 0 5.6 0.6 7.2 1.9 1.5 1.2 2.3 2.8 2.3 4.7v16c0 0.6-0.1 1.4-0.4 2.1 -0.2 0.8-0.7 1.5-1.4 2.1 -0.7 0.7-1.7 1.2-2.9 1.6 -1.2 0.4-2.8 0.6-4.8 0.6 -2 0-3.5-0.2-4.8-0.6 -1.2-0.4-2.2-1-2.9-1.6 -0.6-0.6-1.1-1.3-1.4-2.1 -0.2-0.8-0.4-1.5-0.4-2.1v-2.6c0-1.4 0.4-2.6 1.1-3.7 0.7-1.1 1.8-1.9 3.1-2.4 0.7-0.2 1.4-0.5 2.3-0.7 0.9-0.3 1.7-0.6 2.5-0.8 0.8-0.3 1.5-0.5 2.1-0.7 0.4-0.1 0.7-0.3 1.1-0.4l0.6-0.3c0.2-0.1 0.5-0.3 0.7-0.6 0.2-0.3 0.4-0.5 0.6-0.9 0.2-0.4 0.3-0.7 0.3-1.1v-1c0-0.4-0.1-0.8-0.2-1.1 -0.1-0.4-0.4-0.7-0.8-1.1 -0.4-0.3-0.9-0.6-1.5-0.8 -0.6-0.2-1.4-0.3-2.3-0.3 -1.9 0-3.1 0.4-3.7 1.1 -0.6 0.6-0.9 1.5-1 2.4 0 0.2-0.2 0.3-0.4 0.3h-4c-0.2 0-0.4-0.2-0.4-0.4v-0.9c0-0.9 0.2-1.7 0.5-2.6 0.4-0.8 0.9-1.5 1.7-2.1 0.8-0.6 1.8-1.1 3-1.4C227.5 15.8 228.9 15.7 230.6 15.7L230.6 15.7zM216.3 15.8h2.7c0.2 0 0.4 0.2 0.3 0.5l-0.9 3.4c0 0.2-0.2 0.3-0.3 0.3h-1.9c-1 0-1.8 0.1-2.4 0.4 -0.6 0.3-1.1 0.5-1.4 0.9 -0.3 0.4-0.5 0.7-0.6 1.1 -0.1 0.3-0.1 0.7-0.1 1.1v20.9c0 0.2-0.2 0.4-0.4 0.4h-4c-0.2 0-0.4-0.2-0.4-0.4V22.4c0-0.4 0.1-1 0.2-1.7 0.1-0.7 0.5-1.5 1.2-2.2 0.6-0.7 1.6-1.4 2.8-1.9C212.4 16.1 214.1 15.8 216.3 15.8L216.3 15.8zM202.9 37.6v1c0 0.4-0.1 1-0.2 1.8 -0.1 0.7-0.5 1.5-1.2 2.2 -0.6 0.7-1.6 1.4-2.8 1.9 -1.3 0.5-3 0.8-5.2 0.8 -2.2 0-3.9-0.3-5.2-0.8 -1.3-0.5-2.2-1.1-2.8-1.9 -0.6-0.7-1-1.5-1.2-2.2 -0.1-0.7-0.2-1.3-0.2-1.7V16.7c0-0.2 0.2-0.4 0.4-0.4h3.9c0.2 0 0.4 0.2 0.4 0.4v20.4c0 0.7 0.1 1.2 0.2 1.6 0.1 0.4 0.3 0.8 0.6 1.1 0.3 0.4 0.8 0.6 1.4 0.9 0.6 0.2 1.4 0.4 2.5 0.4 1.1 0 1.9-0.1 2.6-0.4 0.6-0.2 1.1-0.5 1.4-0.8 0.3-0.3 0.6-0.7 0.7-1.1 0.1-0.4 0.2-0.7 0.2-1.7V16.7c0-0.2 0.2-0.4 0.4-0.4h3.9c0.2 0 0.4 0.2 0.4 0.4L202.9 37.6 202.9 37.6 202.9 37.6zM175.8 5.4h3.9c0.2 0 0.4 0.2 0.4 0.4v38.6c0 0.2-0.2 0.4-0.4 0.4h-3.9c-0.2 0-0.4-0.2-0.4-0.4V5.7C175.5 5.5 175.6 5.4 175.8 5.4L175.8 5.4z"/><path fill="#FFFFFF" d="M7.7 45.6V35.5h1.1c0.1 0 0.2 0 0.3 0.1 0.1 0.1 0.1 0.1 0.2 0.3l0.1 0.7c0.3-0.3 0.7-0.6 1.1-0.9 0.4-0.2 0.9-0.3 1.4-0.3 0.4 0 0.8 0.1 1.1 0.3 0.3 0.2 0.6 0.4 0.9 0.8 0.2 0.3 0.4 0.7 0.6 1.2 0.1 0.5 0.2 1 0.2 1.7 0 0.6-0.1 1.1-0.2 1.6 -0.2 0.5-0.4 0.9-0.7 1.3s-0.6 0.6-1 0.8c-0.4 0.2-0.9 0.3-1.4 0.3 -0.4 0-0.8-0.1-1.1-0.2 -0.3-0.1-0.6-0.3-0.8-0.5v3.1H7.7zM11.2 36.8c-0.4 0-0.7 0.1-1 0.2 -0.3 0.2-0.5 0.4-0.8 0.7v3.4c0.2 0.3 0.4 0.4 0.7 0.5 0.2 0.1 0.5 0.2 0.8 0.2 0.3 0 0.5-0.1 0.8-0.2 0.2-0.1 0.4-0.3 0.6-0.5s0.3-0.5 0.4-0.8c0.1-0.3 0.1-0.7 0.1-1.1 0-0.4 0-0.8-0.1-1.1 -0.1-0.3-0.2-0.6-0.3-0.8 -0.1-0.2-0.3-0.3-0.5-0.4C11.7 36.8 11.5 36.8 11.2 36.8zM31.8 43.1H31c-0.2 0-0.3 0-0.4-0.1 -0.1-0.1-0.2-0.2-0.2-0.3l-0.2-0.5c-0.2 0.2-0.4 0.3-0.6 0.5 -0.2 0.1-0.4 0.2-0.6 0.3 -0.2 0.1-0.4 0.2-0.6 0.2s-0.5 0.1-0.7 0.1c-0.3 0-0.6 0-0.9-0.1 -0.3-0.1-0.5-0.2-0.7-0.4 -0.2-0.2-0.3-0.4-0.5-0.6 -0.1-0.3-0.2-0.6-0.2-0.9 0-0.3 0.1-0.6 0.2-0.9 0.2-0.3 0.4-0.5 0.8-0.8 0.4-0.2 0.8-0.4 1.4-0.6 0.6-0.1 1.3-0.2 2.2-0.2v-0.4c0-0.5-0.1-0.9-0.3-1.1 -0.2-0.2-0.5-0.4-0.9-0.4 -0.3 0-0.5 0-0.7 0.1 -0.2 0.1-0.4 0.1-0.5 0.2 -0.1 0.1-0.3 0.2-0.4 0.2 -0.1 0.1-0.3 0.1-0.4 0.1 -0.1 0-0.2 0-0.3-0.1 -0.1-0.1-0.2-0.1-0.2-0.2l-0.3-0.6c0.9-0.8 1.9-1.2 3.2-1.2 0.4 0 0.8 0.1 1.2 0.2 0.3 0.1 0.6 0.3 0.9 0.6 0.2 0.3 0.4 0.6 0.6 0.9 0.1 0.4 0.2 0.8 0.2 1.2V43.1zM28.2 42c0.2 0 0.4 0 0.5-0.1 0.2 0 0.3-0.1 0.4-0.2 0.1-0.1 0.3-0.2 0.4-0.3 0.1-0.1 0.3-0.2 0.4-0.4v-1.3c-0.5 0-1 0-1.3 0.1 -0.4 0.1-0.6 0.2-0.9 0.3 -0.2 0.1-0.4 0.2-0.5 0.4 -0.1 0.1-0.1 0.3-0.1 0.5 0 0.3 0.1 0.6 0.3 0.7C27.7 41.9 27.9 42 28.2 42zM43.4 43.1v-7.6h1.1c0.2 0 0.3 0 0.4 0.1 0.1 0.1 0.1 0.2 0.1 0.4l0.1 0.9c0.3-0.5 0.6-0.8 1-1.1 0.4-0.3 0.8-0.4 1.2-0.4 0.4 0 0.7 0.1 0.9 0.3L48 37c0 0.1 0 0.2-0.1 0.2s-0.1 0.1-0.2 0.1c-0.1 0-0.2 0-0.3-0.1s-0.3-0.1-0.5-0.1c-0.4 0-0.7 0.1-1 0.3 -0.3 0.2-0.5 0.5-0.7 0.9v4.7H43.4zM65 43.1h-0.8c-0.2 0-0.3 0-0.4-0.1 -0.1-0.1-0.2-0.2-0.2-0.3l-0.2-0.5c-0.2 0.2-0.4 0.3-0.6 0.5 -0.2 0.1-0.4 0.2-0.6 0.3 -0.2 0.1-0.4 0.2-0.6 0.2s-0.5 0.1-0.7 0.1c-0.3 0-0.6 0-0.9-0.1 -0.3-0.1-0.5-0.2-0.7-0.4 -0.2-0.2-0.3-0.4-0.5-0.6 -0.1-0.3-0.2-0.6-0.2-0.9 0-0.3 0.1-0.6 0.2-0.9 0.2-0.3 0.4-0.5 0.8-0.8 0.4-0.2 0.8-0.4 1.4-0.6 0.6-0.1 1.3-0.2 2.2-0.2v-0.4c0-0.5-0.1-0.9-0.3-1.1 -0.2-0.2-0.5-0.4-0.9-0.4 -0.3 0-0.5 0-0.7 0.1C61 37 60.8 37 60.7 37.1c-0.1 0.1-0.3 0.2-0.4 0.2 -0.1 0.1-0.3 0.1-0.4 0.1 -0.1 0-0.2 0-0.3-0.1 -0.1-0.1-0.2-0.1-0.2-0.2L59 36.5c0.9-0.8 1.9-1.2 3.2-1.2 0.4 0 0.8 0.1 1.2 0.2 0.3 0.1 0.6 0.3 0.9 0.6 0.2 0.3 0.4 0.6 0.6 0.9 0.1 0.4 0.2 0.8 0.2 1.2V43.1zM61.4 42c0.2 0 0.4 0 0.5-0.1 0.2 0 0.3-0.1 0.4-0.2 0.1-0.1 0.3-0.2 0.4-0.3 0.1-0.1 0.3-0.2 0.4-0.4v-1.3c-0.5 0-1 0-1.3 0.1 -0.4 0.1-0.6 0.2-0.9 0.3 -0.2 0.1-0.4 0.2-0.5 0.4 -0.1 0.1-0.1 0.3-0.1 0.5 0 0.3 0.1 0.6 0.3 0.7C60.9 41.9 61.1 42 61.4 42zM88.3 35.5h1.5c0.1 0 0.3 0 0.3 0.1 0.1 0.1 0.2 0.1 0.2 0.2l1.1 4.1c0.1 0.2 0.1 0.4 0.1 0.7 0 0.2 0.1 0.4 0.1 0.6 0.1-0.2 0.1-0.4 0.2-0.6 0.1-0.2 0.1-0.4 0.2-0.7l1.3-4.1c0-0.1 0.1-0.2 0.2-0.2 0.1-0.1 0.2-0.1 0.3-0.1h0.8c0.1 0 0.2 0 0.3 0.1 0.1 0.1 0.1 0.1 0.2 0.2l1.2 4.2c0.1 0.2 0.1 0.4 0.2 0.6 0.1 0.2 0.1 0.4 0.2 0.6 0-0.2 0.1-0.4 0.1-0.6 0-0.2 0.1-0.4 0.2-0.7l1.1-4.1c0-0.1 0.1-0.2 0.2-0.2 0.1-0.1 0.2-0.1 0.3-0.1h1.4l-2.4 7.6H96c-0.2 0-0.3-0.1-0.3-0.3l-1.4-4.4c0-0.1-0.1-0.3-0.1-0.4 0-0.1-0.1-0.3-0.1-0.4 0 0.1-0.1 0.3-0.1 0.4 0 0.1-0.1 0.3-0.1 0.4l-1.4 4.4c-0.1 0.2-0.2 0.3-0.4 0.3h-1.4L88.3 35.5zM113.9 35.4c0.5 0 0.9 0.1 1.3 0.2 0.4 0.2 0.7 0.4 1 0.7 0.3 0.3 0.5 0.7 0.7 1.1 0.2 0.4 0.2 0.9 0.2 1.5 0 0.1 0 0.3 0 0.3 0 0.1 0 0.2-0.1 0.2 0 0.1-0.1 0.1-0.1 0.1 -0.1 0-0.1 0-0.2 0H112c0.1 0.8 0.3 1.4 0.6 1.7 0.4 0.4 0.9 0.5 1.5 0.5 0.3 0 0.6 0 0.8-0.1 0.2-0.1 0.4-0.1 0.6-0.2 0.2-0.1 0.3-0.2 0.4-0.2 0.1-0.1 0.2-0.1 0.4-0.1 0.1 0 0.1 0 0.2 0 0.1 0 0.1 0.1 0.1 0.1l0.5 0.7c-0.2 0.2-0.4 0.4-0.7 0.6 -0.3 0.2-0.5 0.3-0.8 0.4 -0.3 0.1-0.6 0.2-0.8 0.2 -0.3 0-0.6 0.1-0.8 0.1 -0.5 0-1-0.1-1.5-0.3s-0.9-0.4-1.2-0.8c-0.3-0.3-0.6-0.8-0.8-1.3 -0.2-0.5-0.3-1.1-0.3-1.8 0-0.5 0.1-1 0.3-1.5 0.2-0.5 0.4-0.9 0.7-1.2 0.3-0.3 0.7-0.6 1.1-0.8C112.8 35.5 113.3 35.4 113.9 35.4zM113.9 36.7c-0.5 0-1 0.2-1.3 0.5 -0.3 0.3-0.5 0.7-0.6 1.3h3.4c0-0.2 0-0.5-0.1-0.7 -0.1-0.2-0.2-0.4-0.3-0.6 -0.1-0.2-0.3-0.3-0.5-0.4S114.2 36.7 113.9 36.7zM128.5 43.1v-11h1.8v4.3c0.3-0.3 0.6-0.6 1-0.8 0.4-0.2 0.8-0.3 1.3-0.3 0.4 0 0.8 0.1 1.1 0.3 0.3 0.2 0.6 0.4 0.9 0.7 0.2 0.3 0.4 0.7 0.6 1.2 0.1 0.5 0.2 1 0.2 1.7 0 0.6-0.1 1.1-0.2 1.6 -0.2 0.5-0.4 0.9-0.7 1.3s-0.6 0.6-1 0.8c-0.4 0.2-0.9 0.3-1.4 0.3 -0.2 0-0.4 0-0.6-0.1 -0.2 0-0.4-0.1-0.5-0.2 -0.2-0.1-0.3-0.2-0.4-0.3 -0.1-0.1-0.3-0.3-0.4-0.4l-0.1 0.5c0 0.1-0.1 0.2-0.2 0.3 -0.1 0.1-0.2 0.1-0.3 0.1H128.5zM132 36.8c-0.4 0-0.7 0.1-1 0.2 -0.3 0.2-0.5 0.4-0.8 0.7v3.4c0.2 0.3 0.4 0.4 0.7 0.5 0.2 0.1 0.5 0.2 0.8 0.2 0.3 0 0.5-0.1 0.7-0.2 0.2-0.1 0.4-0.3 0.6-0.5 0.2-0.2 0.3-0.5 0.4-0.8 0.1-0.3 0.1-0.7 0.1-1.1 0-0.4 0-0.8-0.1-1.1 -0.1-0.3-0.2-0.6-0.3-0.8 -0.1-0.2-0.3-0.3-0.5-0.4C132.5 36.8 132.3 36.8 132 36.8z"/><path fill="#CC0000" d="M143.3 50H0V27.7h143.3V50zM1.2 48.8h140.9V28.9H1.2V48.8z"/><path fill="#FFFFFF" d="M0 3.1V0.9h12.1v2.1H7.1v19.8H4.9V3.1H0zM15 0c0.5 0 0.9 0.2 1.2 0.5 0.3 0.3 0.5 0.7 0.5 1.2s-0.2 0.9-0.5 1.2c-0.3 0.3-0.7 0.5-1.2 0.5s-0.9-0.2-1.2-0.5c-0.3-0.3-0.5-0.7-0.5-1.2s0.2-0.9 0.5-1.2C14.2 0.2 14.6 0 15 0zM14 6.7h2.1v16.2H14V6.7zM24.9 6.7c1.2-0.5 2.4-0.8 3.7-0.8 2.3 0 4.3 0.8 5.9 2.5 1.6 1.7 2.5 3.7 2.5 6 0 2.4-0.8 4.4-2.4 6.1C33 22.2 31 23 28.7 23c-1.3 0-2.5-0.3-3.6-0.8 -1.1-0.5-2.1-1.3-2.9-2.4v9.1h-2.1c0 0 0-5.1 0-15.4 0.2-1.4 0.7-2.9 1.6-4.4C22.7 8 23.8 7.2 24.9 6.7zM23.9 9.8c-1.2 1.3-1.9 2.8-1.9 4.7 0 1.2 0.3 2.3 0.8 3.3 0.6 1 1.3 1.8 2.4 2.4 1 0.6 2.1 0.9 3.3 0.9 1.1 0 2.2-0.3 3.2-0.9s1.8-1.4 2.4-2.4c0.6-1.1 0.9-2.1 0.9-3.3 0-1.2-0.3-2.3-0.9-3.3 -0.6-1-1.4-1.8-2.3-2.4 -1-0.6-2.1-0.9-3.2-0.9C26.7 7.9 25.2 8.6 23.9 9.8zM48.9 5.9c2.5 0 4.6 0.9 6.2 2.7 1.5 1.7 2.2 3.6 2.2 5.9 0 2.3-0.8 4.2-2.4 5.9 -1.6 1.7-3.6 2.5-6.1 2.5 -2.5 0-4.5-0.8-6.1-2.5 -1.6-1.7-2.4-3.7-2.4-5.9 0-2.3 0.7-4.2 2.2-5.9C44.3 6.8 46.4 5.9 48.9 5.9zM48.9 7.9c-1.7 0-3.2 0.6-4.5 1.9 -1.2 1.3-1.9 2.8-1.9 4.7 0 1.2 0.3 2.3 0.9 3.3 0.6 1 1.3 1.8 2.3 2.4 1 0.5 2 0.8 3.2 0.8 1.2 0 2.2-0.3 3.2-0.8 1-0.5 1.7-1.3 2.3-2.4s0.8-2.1 0.8-3.3c0-1.8-0.6-3.4-1.9-4.7C52.1 8.6 50.6 7.9 48.9 7.9zM77.3 19.2c0 2.3-0.2 4-0.6 5 -0.5 1.5-1.5 2.6-2.9 3.4 -1.4 0.8-3 1.2-4.9 1.2 -1.4 0-2.7-0.2-3.8-0.6 -1.1-0.4-2-0.9-2.7-1.6 -0.7-0.7-1.3-1.6-1.9-2.9h2.3c0.6 1.1 1.4 1.9 2.4 2.4 1 0.5 2.2 0.8 3.6 0.8 1.4 0 2.6-0.3 3.6-0.8 1-0.5 1.7-1.2 2.1-2 0.4-0.8 0.6-2.1 0.6-3.9v-0.8c-0.8 1-1.7 1.8-2.9 2.3 -1.1 0.5-2.3 0.8-3.6 0.8 -1.5 0-2.9-0.4-4.2-1.1 -1.3-0.7-2.3-1.7-3.1-3 -0.7-1.3-1.1-2.6-1.1-4.1 0-1.5 0.4-2.9 1.1-4.2 0.7-1.3 1.8-2.3 3.1-3.1 1.3-0.8 2.7-1.1 4.2-1.1 1.2 0 2.3 0.2 3.3 0.6 0.8 0.3 1.8 0.9 3 1.8 1 0.8 1.7 2.3 2.3 4.6C77.3 13.1 77.3 15.2 77.3 19.2zM69 7.9c-1.2 0-2.3 0.3-3.3 0.9 -1 0.6-1.8 1.4-2.4 2.4 -0.6 1-0.9 2.1-0.9 3.3 0 1.8 0.6 3.3 1.8 4.4 1.2 1.2 2.7 1.7 4.6 1.7 1.9 0 3.5-0.6 4.7-1.7 1.2-1.2 1.7-2.7 1.7-4.6 0-1.2-0.3-2.3-0.8-3.3 -0.5-1-1.3-1.7-2.3-2.3C71.2 8.2 70.2 7.9 69 7.9zM80.9 15.5v-2c0.2-1 0.4-1.8 0.7-2.4 0.7-1.7 1.6-2.9 2.8-3.7 1.2-0.8 2.1-1.2 2.9-1.2 0.6 0 1.2 0.2 1.8 0.6l-1.1 1.7c-0.9-0.3-1.8-0.1-2.7 0.8 -0.9 0.9-1.5 1.8-1.9 2.9 -0.3 0.9-0.4 2.6-0.4 5.2v5.5h-2.1V15.5zM98.6 5.9c2.5 0 4.6 0.9 6.2 2.7 1.5 1.6 2.3 3.6 2.3 5.9 0 5.6 0 8.5 0 8.5 -0.9 0-1.7 0-2.2 0 0-0.1 0-1.3 0-3.7 -1.2 2.2-3.3 3.4-6.3 3.6 -2.5 0-4.5-0.8-6.1-2.5 -1.6-1.7-2.4-3.7-2.4-5.9 0-2.3 0.7-4.2 2.2-5.9C94 6.8 96.1 5.9 98.6 5.9zM98.6 7.9c-1.7 0-3.2 0.6-4.5 1.9 -1.2 1.3-1.9 2.8-1.9 4.7 0 1.2 0.3 2.3 1 3.4 0.6 1.1 1.7 2 3.2 2.8 3.8 0.8 6.5-0.9 8.1-5.2 0.1-1.4-0.1-2.7-0.4-4 -0.3-0.6-0.7-1.1-1.1-1.6C101.8 8.6 100.3 7.9 98.6 7.9zM117.1 2.7c-1-0.6-2-0.6-3-0.1 -0.9 0.5-1.5 1.8-1.7 3.9v1.6h3.9v1.8h-3.9V23h-2.1V6.1c0-1.3 0.3-2.4 0.8-3.3 0.8-1.6 2.1-2.5 3.8-2.5 0.9-0.2 1.9 0 2.9 0.6C117.6 1.3 117.4 1.9 117.1 2.7zM121.8 0c0.5 0 0.9 0.2 1.2 0.5 0.3 0.3 0.5 0.7 0.5 1.2s-0.2 0.9-0.5 1.2c-0.3 0.3-0.7 0.5-1.2 0.5s-0.9-0.2-1.2-0.5c-0.3-0.3-0.5-0.7-0.5-1.2s0.2-0.9 0.5-1.2C120.9 0.2 121.3 0 121.8 0zM120.7 6.7h2.1v16.2h-2.1V6.7zM134.8 5.9c2.5 0 4.6 0.9 6.2 2.7 1.5 1.6 2.3 3.6 2.3 5.9 0 5.6 0 8.5 0 8.5 -0.9 0-1.7 0-2.2 0 0-0.1 0-1.3 0-3.7 -1.2 2.2-3.3 3.4-6.3 3.6 -2.5 0-4.5-0.8-6.1-2.5 -1.6-1.7-2.4-3.7-2.4-5.9 0-2.3 0.7-4.2 2.2-5.9C130.3 6.8 132.3 5.9 134.8 5.9zM134.8 7.9c-1.7 0-3.2 0.6-4.5 1.9 -1.2 1.3-1.9 2.8-1.9 4.7 0 1.2 0.3 2.3 1 3.4 0.6 1.1 1.7 2 3.2 2.8 3.8 0.8 6.5-0.9 8.1-5.2 0.1-1.4-0.1-2.7-0.4-4 -0.3-0.6-0.7-1.1-1.1-1.6C138 8.6 136.6 7.9 134.8 7.9z"/></svg>