<?xml version="1.0" encoding="utf-8"?>
<!-- Generator: Adobe Illustrator 20.1.0, SVG Export Plug-In . SVG Version: 6.00 Build 0)  -->
<svg version="1.1" id="Camada_1" xmlns="http://www.w3.org/2000/svg" xmlns:xlink="http://www.w3.org/1999/xlink" x="0px" y="0px"
	 viewBox="0 0 143.3 50" style="enable-background:new 0 0 143.3 50;" xml:space="preserve">
<style type="text/css">
	.st0{fill:#FFFFFF;}
	.st1{fill:#CC0000;}
</style>
<path class="st0" d="M7.7,45.6V35.5h1.1c0.1,0,0.2,0,0.3,0.1s0.1,0.1,0.2,0.3l0.1,0.7c0.3-0.3,0.7-0.6,1.1-0.9
	c0.4-0.2,0.9-0.3,1.4-0.3c0.4,0,0.8,0.1,1.1,0.3s0.6,0.4,0.9,0.8c0.2,0.3,0.4,0.7,0.6,1.2c0.1,0.5,0.2,1,0.2,1.7
	c0,0.6-0.1,1.1-0.2,1.6c-0.2,0.5-0.4,0.9-0.7,1.3s-0.6,0.6-1,0.8s-0.9,0.3-1.4,0.3c-0.4,0-0.8-0.1-1.1-0.2c-0.3-0.1-0.6-0.3-0.8-0.5
	v3.1H7.7V45.6z M11.2,36.8c-0.4,0-0.7,0.1-1,0.2c-0.3,0.2-0.5,0.4-0.8,0.7v3.4c0.2,0.3,0.4,0.4,0.7,0.5c0.2,0.1,0.5,0.2,0.8,0.2
	s0.5-0.1,0.8-0.2c0.2-0.1,0.4-0.3,0.6-0.5s0.3-0.5,0.4-0.8c0.1-0.3,0.1-0.7,0.1-1.1c0-0.4,0-0.8-0.1-1.1s-0.2-0.6-0.3-0.8
	s-0.3-0.3-0.5-0.4C11.7,36.8,11.5,36.8,11.2,36.8z M31.8,43.1H31c-0.2,0-0.3,0-0.4-0.1s-0.2-0.2-0.2-0.3l-0.2-0.5
	c-0.2,0.2-0.4,0.3-0.6,0.5c-0.2,0.1-0.4,0.2-0.6,0.3s-0.4,0.2-0.6,0.2s-0.5,0.1-0.7,0.1c-0.3,0-0.6,0-0.9-0.1s-0.5-0.2-0.7-0.4
	s-0.3-0.4-0.5-0.6c-0.1-0.3-0.2-0.6-0.2-0.9c0-0.3,0.1-0.6,0.2-0.9c0.2-0.3,0.4-0.5,0.8-0.8c0.4-0.2,0.8-0.4,1.4-0.6
	c0.6-0.1,1.3-0.2,2.2-0.2v-0.4c0-0.5-0.1-0.9-0.3-1.1c-0.2-0.2-0.5-0.4-0.9-0.4c-0.3,0-0.5,0-0.7,0.1s-0.4,0.1-0.5,0.2
	c-0.1,0.1-0.3,0.2-0.4,0.2c-0.1,0.1-0.3,0.1-0.4,0.1s-0.2,0-0.3-0.1c-0.1-0.1-0.2-0.1-0.2-0.2L26,36.6c0.9-0.8,1.9-1.2,3.2-1.2
	c0.4,0,0.8,0.1,1.2,0.2c0.3,0.1,0.6,0.3,0.9,0.6c0.2,0.3,0.4,0.6,0.6,0.9c0.1,0.4,0.2,0.8,0.2,1.2v4.8H31.8z M28.2,42
	c0.2,0,0.4,0,0.5-0.1c0.2,0,0.3-0.1,0.4-0.2c0.1-0.1,0.3-0.2,0.4-0.3s0.3-0.2,0.4-0.4v-1.3c-0.5,0-1,0-1.3,0.1
	c-0.4,0.1-0.6,0.2-0.9,0.3c-0.2,0.1-0.4,0.2-0.5,0.4c-0.1,0.1-0.1,0.3-0.1,0.5c0,0.3,0.1,0.6,0.3,0.7C27.7,41.9,27.9,42,28.2,42z
	 M43.4,43.1v-7.6h1.1c0.2,0,0.3,0,0.4,0.1C45,35.7,45,35.8,45,36l0.1,0.9c0.3-0.5,0.6-0.8,1-1.1s0.8-0.4,1.2-0.4s0.7,0.1,0.9,0.3
	L48,37c0,0.1,0,0.2-0.1,0.2s-0.1,0.1-0.2,0.1c-0.1,0-0.2,0-0.3-0.1s-0.3-0.1-0.5-0.1c-0.4,0-0.7,0.1-1,0.3s-0.5,0.5-0.7,0.9V43
	L43.4,43.1L43.4,43.1z M65,43.1h-0.8c-0.2,0-0.3,0-0.4-0.1c-0.1-0.1-0.2-0.2-0.2-0.3l-0.2-0.5c-0.2,0.2-0.4,0.3-0.6,0.5
	c-0.2,0.1-0.4,0.2-0.6,0.3c-0.2,0.1-0.4,0.2-0.6,0.2s-0.5,0.1-0.7,0.1c-0.3,0-0.6,0-0.9-0.1c-0.3-0.1-0.5-0.2-0.7-0.4
	s-0.3-0.4-0.5-0.6c-0.1-0.3-0.2-0.6-0.2-0.9c0-0.3,0.1-0.6,0.2-0.9c0.2-0.3,0.4-0.5,0.8-0.8c0.4-0.2,0.8-0.4,1.4-0.6
	c0.6-0.1,1.3-0.2,2.2-0.2v-0.4c0-0.5-0.1-0.9-0.3-1.1c-0.2-0.2-0.5-0.4-0.9-0.4c-0.3,0-0.5,0-0.7,0.1c-0.3,0-0.5,0-0.6,0.1
	s-0.3,0.2-0.4,0.2c-0.1,0.1-0.3,0.1-0.4,0.1c-0.1,0-0.2,0-0.3-0.1s-0.2-0.1-0.2-0.2L59,36.5c0.9-0.8,1.9-1.2,3.2-1.2
	c0.4,0,0.8,0.1,1.2,0.2c0.3,0.1,0.6,0.3,0.9,0.6c0.2,0.3,0.4,0.6,0.6,0.9c0.1,0.4,0.2,0.8,0.2,1.2L65,43.1L65,43.1z M61.4,42
	c0.2,0,0.4,0,0.5-0.1c0.2,0,0.3-0.1,0.4-0.2c0.1-0.1,0.3-0.2,0.4-0.3c0.1-0.1,0.3-0.2,0.4-0.4v-1.3c-0.5,0-1,0-1.3,0.1
	c-0.4,0.1-0.6,0.2-0.9,0.3c-0.2,0.1-0.4,0.2-0.5,0.4c-0.1,0.1-0.1,0.3-0.1,0.5c0,0.3,0.1,0.6,0.3,0.7C60.9,41.9,61.1,42,61.4,42z
	 M88.3,35.5h1.5c0.1,0,0.3,0,0.3,0.1c0.1,0.1,0.2,0.1,0.2,0.2l1.1,4.1c0.1,0.2,0.1,0.4,0.1,0.7c0,0.2,0.1,0.4,0.1,0.6
	c0.1-0.2,0.1-0.4,0.2-0.6c0.1-0.2,0.1-0.4,0.2-0.7l1.3-4.1c0-0.1,0.1-0.2,0.2-0.2c0.1-0.1,0.2-0.1,0.3-0.1h0.8c0.1,0,0.2,0,0.3,0.1
	c0.1,0.1,0.1,0.1,0.2,0.2l1.2,4.2c0.1,0.2,0.1,0.4,0.2,0.6c0.1,0.2,0.1,0.4,0.2,0.6c0-0.2,0.1-0.4,0.1-0.6c0-0.2,0.1-0.4,0.2-0.7
	l1.1-4.1c0-0.1,0.1-0.2,0.2-0.2c0.1-0.1,0.2-0.1,0.3-0.1h1.4l-2.4,7.6H96c-0.2,0-0.3-0.1-0.3-0.3l-1.4-4.4c0-0.1-0.1-0.3-0.1-0.4
	c0-0.1-0.1-0.3-0.1-0.4c0,0.1-0.1,0.3-0.1,0.4c0,0.1-0.1,0.3-0.1,0.4l-1.4,4.4c-0.1,0.2-0.2,0.3-0.4,0.3h-1.4L88.3,35.5z
	 M113.9,35.4c0.5,0,0.9,0.1,1.3,0.2c0.4,0.2,0.7,0.4,1,0.7s0.5,0.7,0.7,1.1c0.2,0.4,0.2,0.9,0.2,1.5c0,0.1,0,0.3,0,0.3
	c0,0.1,0,0.2-0.1,0.2c0,0.1-0.1,0.1-0.1,0.1c-0.1,0-0.1,0-0.2,0H112c0.1,0.8,0.3,1.4,0.6,1.7c0.4,0.4,0.9,0.5,1.5,0.5
	c0.3,0,0.6,0,0.8-0.1c0.2-0.1,0.4-0.1,0.6-0.2c0.2-0.1,0.3-0.2,0.4-0.2c0.1-0.1,0.2-0.1,0.4-0.1c0.1,0,0.1,0,0.2,0s0.1,0.1,0.1,0.1
	l0.5,0.7c-0.2,0.2-0.4,0.4-0.7,0.6c-0.3,0.2-0.5,0.3-0.8,0.4c-0.3,0.1-0.6,0.2-0.8,0.2c-0.3,0-0.6,0.1-0.8,0.1c-0.5,0-1-0.1-1.5-0.3
	s-0.9-0.4-1.2-0.8c-0.3-0.3-0.6-0.8-0.8-1.3c-0.2-0.5-0.3-1.1-0.3-1.8c0-0.5,0.1-1,0.3-1.5c0.2-0.5,0.4-0.9,0.7-1.2
	c0.3-0.3,0.7-0.6,1.1-0.8C112.8,35.5,113.3,35.4,113.9,35.4z M113.9,36.7c-0.5,0-1,0.2-1.3,0.5s-0.5,0.7-0.6,1.3h3.4
	c0-0.2,0-0.5-0.1-0.7s-0.2-0.4-0.3-0.6c-0.1-0.2-0.3-0.3-0.5-0.4S114.2,36.7,113.9,36.7z M128.5,43.1v-11h1.8v4.3
	c0.3-0.3,0.6-0.6,1-0.8s0.8-0.3,1.3-0.3c0.4,0,0.8,0.1,1.1,0.3s0.6,0.4,0.9,0.7c0.2,0.3,0.4,0.7,0.6,1.2c0.1,0.5,0.2,1,0.2,1.7
	c0,0.6-0.1,1.1-0.2,1.6c-0.2,0.5-0.4,0.9-0.7,1.3s-0.6,0.6-1,0.8s-0.9,0.3-1.4,0.3c-0.2,0-0.4,0-0.6-0.1c-0.2,0-0.4-0.1-0.5-0.2
	c-0.2-0.1-0.3-0.2-0.4-0.3c-0.1-0.1-0.3-0.3-0.4-0.4l-0.1,0.5c0,0.1-0.1,0.2-0.2,0.3c-0.1,0.1-0.2,0.1-0.3,0.1
	C129.6,43.1,128.5,43.1,128.5,43.1z M132,36.8c-0.4,0-0.7,0.1-1,0.2c-0.3,0.2-0.5,0.4-0.8,0.7v3.4c0.2,0.3,0.4,0.4,0.7,0.5
	c0.2,0.1,0.5,0.2,0.8,0.2s0.5-0.1,0.7-0.2c0.2-0.1,0.4-0.3,0.6-0.5c0.2-0.2,0.3-0.5,0.4-0.8c0.1-0.3,0.1-0.7,0.1-1.1
	c0-0.4,0-0.8-0.1-1.1s-0.2-0.6-0.3-0.8s-0.3-0.3-0.5-0.4C132.5,36.8,132.3,36.8,132,36.8z"/>
<path class="st1" d="M143.3,50H0V27.7h143.3V50z M1.2,48.8h140.9V28.9H1.2V48.8z"/>
<path class="st0" d="M0,3.1V0.9h12.1V3h-5v19.8H4.9V3.1H0z M15,0c0.5,0,0.9,0.2,1.2,0.5c0.3,0.3,0.5,0.7,0.5,1.2s-0.2,0.9-0.5,1.2
	c-0.3,0.3-0.7,0.5-1.2,0.5s-0.9-0.2-1.2-0.5s-0.5-0.7-0.5-1.2s0.2-0.9,0.5-1.2C14.2,0.2,14.6,0,15,0z M14,6.7h2.1v16.2H14V6.7z
	 M24.9,6.7c1.2-0.5,2.4-0.8,3.7-0.8c2.3,0,4.3,0.8,5.9,2.5s2.5,3.7,2.5,6c0,2.4-0.8,4.4-2.4,6.1C33,22.2,31,23,28.7,23
	c-1.3,0-2.5-0.3-3.6-0.8s-2.1-1.3-2.9-2.4v9.1h-2.1c0,0,0-5.1,0-15.4c0.2-1.4,0.7-2.9,1.6-4.4C22.7,8,23.8,7.2,24.9,6.7z M23.9,9.8
	c-1.2,1.3-1.9,2.8-1.9,4.7c0,1.2,0.3,2.3,0.8,3.3c0.6,1,1.3,1.8,2.4,2.4c1,0.6,2.1,0.9,3.3,0.9c1.1,0,2.2-0.3,3.2-0.9
	c1-0.6,1.8-1.4,2.4-2.4c0.6-1.1,0.9-2.1,0.9-3.3s-0.3-2.3-0.9-3.3c-0.6-1-1.4-1.8-2.3-2.4c-1-0.6-2.1-0.9-3.2-0.9
	C26.7,7.9,25.2,8.6,23.9,9.8z M48.9,5.9c2.5,0,4.6,0.9,6.2,2.7c1.5,1.7,2.2,3.6,2.2,5.9s-0.8,4.2-2.4,5.9c-1.6,1.7-3.6,2.5-6.1,2.5
	s-4.5-0.8-6.1-2.5s-2.4-3.7-2.4-5.9c0-2.3,0.7-4.2,2.2-5.9C44.3,6.8,46.4,5.9,48.9,5.9z M48.9,7.9c-1.7,0-3.2,0.6-4.5,1.9
	c-1.2,1.3-1.9,2.8-1.9,4.7c0,1.2,0.3,2.3,0.9,3.3c0.6,1,1.3,1.8,2.3,2.4c1,0.5,2,0.8,3.2,0.8s2.2-0.3,3.2-0.8s1.7-1.3,2.3-2.4
	s0.8-2.1,0.8-3.3c0-1.8-0.6-3.4-1.9-4.7C52.1,8.6,50.6,7.9,48.9,7.9z M77.3,19.2c0,2.3-0.2,4-0.6,5c-0.5,1.5-1.5,2.6-2.9,3.4
	s-3,1.2-4.9,1.2c-1.4,0-2.7-0.2-3.8-0.6c-1.1-0.4-2-0.9-2.7-1.6s-1.3-1.6-1.9-2.9h2.3c0.6,1.1,1.4,1.9,2.4,2.4s2.2,0.8,3.6,0.8
	s2.6-0.3,3.6-0.8s1.7-1.2,2.1-2s0.6-2.1,0.6-3.9v-0.8c-0.8,1-1.7,1.8-2.9,2.3c-1.1,0.5-2.3,0.8-3.6,0.8c-1.5,0-2.9-0.4-4.2-1.1
	c-1.3-0.7-2.3-1.7-3.1-3c-0.7-1.3-1.1-2.6-1.1-4.1s0.4-2.9,1.1-4.2C62,8.8,63.1,7.8,64.4,7c1.3-0.8,2.7-1.1,4.2-1.1
	c1.2,0,2.3,0.2,3.3,0.6c0.8,0.3,1.8,0.9,3,1.8c1,0.8,1.7,2.3,2.3,4.6C77.3,13.1,77.3,15.2,77.3,19.2z M69,7.9
	c-1.2,0-2.3,0.3-3.3,0.9s-1.8,1.4-2.4,2.4c-0.6,1-0.9,2.1-0.9,3.3c0,1.8,0.6,3.3,1.8,4.4c1.2,1.2,2.7,1.7,4.6,1.7s3.5-0.6,4.7-1.7
	c1.2-1.2,1.7-2.7,1.7-4.6c0-1.2-0.3-2.3-0.8-3.3s-1.3-1.7-2.3-2.3C71.2,8.2,70.2,7.9,69,7.9z M80.9,15.5v-2c0.2-1,0.4-1.8,0.7-2.4
	c0.7-1.7,1.6-2.9,2.8-3.7c1.2-0.8,2.1-1.2,2.9-1.2c0.6,0,1.2,0.2,1.8,0.6L88,8.5c-0.9-0.3-1.8-0.1-2.7,0.8c-0.9,0.9-1.5,1.8-1.9,2.9
	c-0.3,0.9-0.4,2.6-0.4,5.2v5.5h-2.1C80.9,22.9,80.9,15.5,80.9,15.5z M98.6,5.9c2.5,0,4.6,0.9,6.2,2.7c1.5,1.6,2.3,3.6,2.3,5.9
	c0,5.6,0,8.5,0,8.5c-0.9,0-1.7,0-2.2,0c0-0.1,0-1.3,0-3.7c-1.2,2.2-3.3,3.4-6.3,3.6c-2.5,0-4.5-0.8-6.1-2.5s-2.4-3.7-2.4-5.9
	c0-2.3,0.7-4.2,2.2-5.9C94,6.8,96.1,5.9,98.6,5.9z M98.6,7.9c-1.7,0-3.2,0.6-4.5,1.9c-1.2,1.3-1.9,2.8-1.9,4.7c0,1.2,0.3,2.3,1,3.4
	c0.6,1.1,1.7,2,3.2,2.8c3.8,0.8,6.5-0.9,8.1-5.2c0.1-1.4-0.1-2.7-0.4-4c-0.3-0.6-0.7-1.1-1.1-1.6C101.8,8.6,100.3,7.9,98.6,7.9z
	 M117.1,2.7c-1-0.6-2-0.6-3-0.1c-0.9,0.5-1.5,1.8-1.7,3.9v1.6h3.9v1.8h-3.9V23h-2.1V6.1c0-1.3,0.3-2.4,0.8-3.3
	c0.8-1.6,2.1-2.5,3.8-2.5c0.9-0.2,1.9,0,2.9,0.6C117.6,1.3,117.4,1.9,117.1,2.7z M121.8,0c0.5,0,0.9,0.2,1.2,0.5
	c0.3,0.3,0.5,0.7,0.5,1.2s-0.2,0.9-0.5,1.2s-0.7,0.5-1.2,0.5s-0.9-0.2-1.2-0.5c-0.3-0.3-0.5-0.7-0.5-1.2s0.2-0.9,0.5-1.2
	C120.9,0.2,121.3,0,121.8,0z M120.7,6.7h2.1v16.2h-2.1V6.7z M134.8,5.9c2.5,0,4.6,0.9,6.2,2.7c1.5,1.6,2.3,3.6,2.3,5.9
	c0,5.6,0,8.5,0,8.5c-0.9,0-1.7,0-2.2,0c0-0.1,0-1.3,0-3.7c-1.2,2.2-3.3,3.4-6.3,3.6c-2.5,0-4.5-0.8-6.1-2.5
	c-1.6-1.7-2.4-3.7-2.4-5.9c0-2.3,0.7-4.2,2.2-5.9C130.3,6.8,132.3,5.9,134.8,5.9z M134.8,7.9c-1.7,0-3.2,0.6-4.5,1.9
	c-1.2,1.3-1.9,2.8-1.9,4.7c0,1.2,0.3,2.3,1,3.4c0.6,1.1,1.7,2,3.2,2.8c3.8,0.8,6.5-0.9,8.1-5.2c0.1-1.4-0.1-2.7-0.4-4
	c-0.3-0.6-0.7-1.1-1.1-1.6C138,8.6,136.6,7.9,134.8,7.9z"/>
</svg>
