<?xml version="1.0" encoding="utf-8"?>
<!-- Generator: Adobe Illustrator 20.1.0, SVG Export Plug-In . SVG Version: 6.00 Build 0)  -->
<svg version="1.1" baseProfile="tiny" id="Camada_1"
	 xmlns="http://www.w3.org/2000/svg" xmlns:xlink="http://www.w3.org/1999/xlink" x="0px" y="0px" viewBox="0 0 109.6 50"
	 xml:space="preserve">
<path fill="#F1F1F1" d="M17.8,30.8c-0.1,0.4-0.4,0.8-0.8,1c-0.4,0.3-0.8,0.4-1,0.5c-0.8,0.3-1.5,0.5-2.3,0.8
	c-0.9,0.3-1.6,0.6-2.3,0.8c-0.9,0.3-1.6,0.5-2.4,0.8c-0.6,0.3-1.1,0.5-1.6,0.9c-0.5,0.4-0.9,0.9-1.1,1.4C6,37.5,5.9,38.1,5.9,39
	c0,1.8,0.4,3,1.3,3.8C8,43.6,9.5,44,11.8,44c2.4,0,3.9-0.5,4.8-1.4c0.9-0.9,1.3-2.1,1.3-3.8V30.8L17.8,30.8z M11.9,12.9
	c4,0,7,0.8,9,2.4c1.9,1.5,2.9,3.5,2.9,5.9v20.1c0,0.8-0.1,1.8-0.5,2.6c-0.3,1-0.9,1.9-1.8,2.6c-0.9,0.9-2.1,1.5-3.6,2
	c-1.5,0.5-3.5,0.8-6,0.8s-4.4-0.3-6-0.8c-1.5-0.5-2.8-1.3-3.6-2c-0.8-0.8-1.4-1.6-1.8-2.6C0.3,42.9,0,42,0,41.2V38
	c0-1.8,0.5-3.3,1.4-4.6c0.9-1.4,2.3-2.4,3.9-3c0.9-0.3,1.8-0.6,2.9-0.9c1.1-0.4,2.1-0.8,3.1-1c1-0.4,1.9-0.6,2.6-0.9
	c0.5-0.1,0.9-0.4,1.4-0.5l0.8-0.4c0.3-0.1,0.6-0.4,0.9-0.8c0.3-0.4,0.5-0.6,0.8-1.1c0.3-0.5,0.4-0.9,0.4-1.4v-1.3
	c0-0.5-0.1-1-0.3-1.4c-0.1-0.5-0.5-0.9-1-1.4c-0.5-0.4-1.1-0.8-1.9-1C14.2,18.2,13.2,18,12,18c-2.4,0-3.9,0.5-4.6,1.4
	c-0.8,0.8-1.1,1.9-1.3,3c0,0.3-0.3,0.4-0.5,0.4l-5,0.1c-0.3,0-0.5-0.3-0.5-0.5v-1.1c0-1.1,0.3-2.3,0.6-3.3c0.5-1,1.1-1.9,2.1-2.6
	c1-0.8,2.3-1.4,3.6-1.8C8,13,9.8,12.9,11.9,12.9L11.9,12.9z M103.6,30.8c-0.1,0.4-0.4,0.8-0.8,1c-0.4,0.3-0.8,0.4-1,0.5
	c-0.8,0.3-1.5,0.5-2.3,0.8c-0.9,0.3-1.6,0.6-2.3,0.8c-0.9,0.3-1.6,0.5-2.4,0.8c-0.6,0.3-1.1,0.5-1.6,0.9c-0.5,0.4-0.9,0.9-1.1,1.4
	c-0.4,0.6-0.5,1.3-0.5,2.1c0,1.8,0.4,3,1.3,3.8c0.9,0.9,2.4,1.3,4.6,1.3c2.4,0,3.9-0.5,4.8-1.4c0.9-0.9,1.3-2.1,1.3-3.8V30.8
	L103.6,30.8z M97.7,12.9c4,0,7,0.8,9,2.4c1.9,1.5,2.9,3.5,2.9,5.9v20.1c0,0.8-0.1,1.8-0.5,2.6c-0.3,1-0.9,1.9-1.8,2.6
	c-0.9,0.9-2.1,1.5-3.6,2c-1.5,0.5-3.5,0.8-6,0.8c-2.5,0-4.4-0.3-6-0.8c-1.5-0.5-2.8-1.3-3.6-2c-0.8-0.8-1.4-1.6-1.8-2.6
	c-0.3-1-0.5-1.9-0.5-2.6V38c0-1.8,0.5-3.3,1.4-4.6c0.9-1.4,2.3-2.4,3.9-3c0.9-0.3,1.8-0.6,2.9-0.9c1.1-0.4,2.1-0.8,3.1-1
	c1-0.4,1.9-0.6,2.6-0.9c0.5-0.1,0.9-0.4,1.4-0.5l0.8-0.4c0.3-0.1,0.6-0.4,0.9-0.8c0.3-0.4,0.5-0.6,0.8-1.1c0.3-0.5,0.4-0.9,0.4-1.4
	v-1.3c0-0.5-0.1-1-0.3-1.4c-0.1-0.5-0.5-0.9-1-1.4c-0.5-0.4-1.1-0.8-1.9-1C100,18.2,99,18,97.9,18c-2.4,0-3.9,0.5-4.6,1.4
	c-0.8,0.8-1.1,1.9-1.3,3c0,0.3-0.3,0.4-0.5,0.4h-5c-0.3,0-0.5-0.3-0.5-0.5v-1.1c0-1.1,0.3-2.1,0.6-3.3c0.5-1,1.1-1.9,2.1-2.6
	s2.3-1.4,3.8-1.8C93.9,13,95.6,12.9,97.7,12.9L97.7,12.9z M79.8,13h3.4c0.3,0,0.5,0.3,0.4,0.6l-1.1,4.3c0,0.3-0.3,0.4-0.4,0.4h-2.4
	c-1.3,0-2.3,0.1-3,0.5c-0.8,0.4-1.4,0.6-1.8,1.1c-0.4,0.5-0.6,0.9-0.8,1.4c-0.1,0.4-0.1,0.9-0.1,1.4v26.2c0,0.3-0.3,0.5-0.5,0.5h-5
	c-0.3,0-0.5-0.3-0.5-0.5V21.3c0-0.5,0.1-1.3,0.3-2.1c0.1-0.9,0.6-1.9,1.5-2.8c0.8-0.9,2-1.8,3.5-2.4C74.9,13.4,77.1,13,79.8,13
	L79.8,13z M63,40.4v1.3c0,0.5-0.1,1.3-0.3,2.3c-0.1,0.9-0.6,1.9-1.5,2.8c-0.8,0.9-2,1.8-3.5,2.4c-1.6,0.6-3.8,1-6.5,1
	c-2.8,0-4.9-0.4-6.5-1c-1.6-0.6-2.8-1.4-3.5-2.4c-0.8-0.9-1.3-1.9-1.5-2.8c-0.1-0.9-0.3-1.6-0.3-2.1V14.2c0-0.3,0.3-0.5,0.5-0.5h4.9
	c0.3,0,0.5,0.3,0.5,0.5v25.6c0,0.9,0.1,1.5,0.3,2c0.1,0.5,0.4,1,0.8,1.4c0.4,0.5,1,0.8,1.8,1.1c0.8,0.3,1.8,0.5,3.1,0.5
	c1.4,0,2.4-0.1,3.3-0.5c0.8-0.3,1.4-0.6,1.8-1c0.4-0.4,0.8-0.9,0.9-1.4c0.1-0.5,0.3-0.9,0.3-2.1V14.2c0-0.3,0.3-0.5,0.5-0.5h4.9
	c0.3,0,0.5,0.3,0.5,0.5L63,40.4L63,40.4L63,40.4z M29.1,0H34c0.3,0,0.5,0.3,0.5,0.5v48.4c0,0.3-0.3,0.5-0.5,0.5h-4.9
	c-0.3,0-0.5-0.3-0.5-0.5V0.4C28.7,0.1,28.8,0,29.1,0L29.1,0z"/>
</svg>
